Coordinates
version=1
nRows=13
nColumns=40
inDegrees=yes

Units are S.I. units (second, meters, Newtons, ...)
Angles are in degrees.

endheader
time	pelvis_tilt	pelvis_list	pelvis_rotation	pelvis_tx	pelvis_ty	pelvis_tz	hip_flexion_r	hip_adduction_r	hip_rotation_r	knee_angle_r	knee_angle_r_beta	ankle_angle_r	subtalar_angle_r	mtp_angle_r	hip_flexion_l	hip_adduction_l	hip_rotation_l	knee_angle_l	knee_angle_l_beta	ankle_angle_l	subtalar_angle_l	mtp_angle_l	lumbar_extension	lumbar_bending	lumbar_rotation	arm_flex_r	arm_add_r	arm_rot_r	elbow_flex_r	pro_sup_r	wrist_flex_r	wrist_dev_r	arm_flex_l	arm_add_l	arm_rot_l	elbow_flex_l	pro_sup_l	wrist_flex_l	wrist_dev_l
     12.15750000	     -2.90737823	     -3.67465281	      3.41031139	      0.71865256	      0.93503768	      0.49453131	      8.58553939	      2.92922445	    -17.32333283	     13.18028186	     13.18028186	      9.97622396	      2.38021832	     -4.71873540	     27.57604258	    -10.30576067	     -1.81396395	     40.01044100	     40.01044100	     12.57500304	    -17.62174381	     14.02983828	     -9.86368979	      8.12426482	      2.00277732	     15.95212406	    -18.98821007	     -6.82636275	     62.17280276	     45.23124285	      0.00000000	      0.00000000	     -2.96197063	     -9.50038566	     -5.28281782	     36.80084685	     46.85752012	      0.00000000	      0.00000000
     12.17071429	     -3.05566240	     -3.71388085	      3.62742365	      0.71706078	      0.93481136	      0.49461507	      8.05020306	      3.08550640	    -17.59004245	     12.53226018	     12.53226018	     10.04155927	      2.65567626	     -5.09873155	     27.90893367	     -9.92723331	     -1.60325369	     36.68560171	     36.68560171	     12.30017238	    -17.05977313	     13.68578596	     -9.83614720	      8.20256439	      1.89053981	     16.85856446	    -18.63786244	     -6.97497735	     63.44896346	     45.20062791	      0.00000000	      0.00000000	     -3.41833874	     -9.46404621	     -5.34695932	     35.39498653	     46.84128884	      0.00000000	      0.00000000
     12.18392857	     -3.27238775	     -3.76905751	      3.80317482	      0.71540462	      0.93436919	      0.49471302	      7.65532790	      3.24468002	    -17.75921757	     11.99412801	     11.99412801	     10.09777572	      2.90226110	     -5.51337664	     28.28960261	     -9.57840076	     -1.43757546	     33.42953461	     33.42953461	     12.07950212	    -16.12733168	     13.13602062	     -9.75803922	      8.24166858	      1.88476849	     17.65858267	    -18.33033457	     -7.13194827	     64.75182201	     45.16956848	      0.00000000	      0.00000000	     -3.82109135	     -9.43815512	     -5.38899178	     34.17196344	     46.82437654	      0.00000000	      0.00000000
     12.19714286	     -3.56499282	     -3.76747664	      3.98508182	      0.71370135	      0.93378592	      0.49468808	      7.39177948	      3.32041208	    -17.86771367	     11.56326122	     11.56326122	     10.28096403	      2.99756583	     -5.75520646	     28.77840371	     -9.18939377	     -1.38941631	     30.35502934	     30.35502934	     11.86404306	    -14.73029633	     13.00248840	     -9.57865280	      8.22780606	      1.95167626	     18.42343228	    -18.01901085	     -7.21490252	     65.78101272	     45.14311394	      0.00000000	      0.00000000	     -4.36621096	     -9.42221581	     -5.37151816	     33.44215941	     46.80504854	      0.00000000	      0.00000000
     12.21035714	     -3.83276084	     -4.07472385	      4.19353666	      0.71194934	      0.93293768	      0.49470401	      7.25593909	      3.69336352	    -18.06662993	     11.37934337	     11.37934337	     10.50653633	      3.01121743	     -5.94884354	     29.42231597	     -9.08422099	     -1.07185262	     27.69237102	     27.69237102	     11.77384695	    -13.31608881	     13.05665657	     -9.41254125	      8.55431619	      2.15693308	     19.36324721	    -17.91947097	     -7.30361179	     66.58662871	     45.12428305	      0.00000000	      0.00000000	     -4.80747826	     -9.45182470	     -5.35088212	     33.03538377	     46.79109322	      0.00000000	      0.00000000
     12.22357143	     -3.77029985	     -4.02376296	      4.37978780	      0.71083973	      0.93273436	      0.49458631	      6.34250603	      3.79381924	    -18.34357240	     10.47754929	     10.47754929	     10.25986692	      3.51667303	     -7.28750843	     29.26567038	     -8.77668417	     -1.51143266	     24.58360400	     24.58360400	     10.25669641	    -11.43838143	      9.39700952	     -9.66046102	      8.47952993	      2.35449534	     19.25059855	    -17.46353910	     -7.84096834	     70.40647728	     45.03904862	      0.00000000	      0.00000000	     -4.61627666	     -9.39972450	     -5.04141998	     30.67605875	     46.69950114	      0.00000000	      0.00000000
     12.23678571	     -3.97507572	     -4.09895047	      4.56951346	      0.70946194	      0.93205497	      0.49440533	      6.08099942	      3.92990623	    -18.38768623	     10.26068025	     10.26068025	     10.53240157	      3.44223575	     -7.36764342	     29.66910060	     -8.47016199	     -1.50000539	     22.22352955	     22.22352955	      9.97405754	     -9.78582517	      9.60604661	     -9.51318931	      8.46965659	      2.28298087	     20.18426003	    -16.94458037	     -7.90328121	     71.33053744	     45.01702418	      0.00000000	      0.00000000	     -5.22256723	     -9.42916134	     -4.94955402	     30.32777390	     46.66961722	      0.00000000	      0.00000000
     12.25000000	     -4.10790313	     -4.25376085	      4.76816851	      0.70829020	      0.93137128	      0.49418036	      5.73923413	      4.15086082	    -18.49079588	     10.05215310	     10.05215310	     10.81592131	      3.43176039	     -7.45577417	     30.05844783	     -8.28787466	     -1.59227469	     20.30081871	     20.30081871	      9.67388029	     -8.14478132	      9.73601567	     -9.42915391	      8.55085999	      2.20398803	     21.17471516	    -16.45313166	     -7.92613859	     72.39565785	     44.98880719	      0.00000000	      0.00000000	     -5.78183003	     -9.47259288	     -4.84817026	     30.01539667	     46.64007742	      0.00000000	      0.00000000
     12.26321429	     -4.05017673	     -4.37303323	      4.97085327	      0.70757580	      0.93088066	      0.49394789	      5.04337695	      4.39332144	    -18.57184683	      9.61875299	      9.61875299	     11.07183483	      3.58986451	     -7.53181740	     30.27174294	     -8.24070280	     -2.34602759	     18.86664296	     18.86664296	      9.29782068	     -5.85630777	      9.02069550	     -9.56810257	      8.61306032	      1.97373790	     21.83854622	    -15.73269492	     -7.88258046	     74.67276029	     44.93021622	      0.00000000	      0.00000000	     -6.50455541	     -9.60980144	     -4.36021392	     29.79494854	     46.53121775	      0.00000000	      0.00000000
     12.27642857	     -4.06160825	     -4.42544960	      5.14824651	      0.70696410	      0.93032252	      0.49351785	      4.56579719	      4.49793621	    -18.59027798	      9.49421657	      9.49421657	     11.42520607	      3.52853122	     -7.59624998	     30.44549442	     -8.00904730	     -2.69645741	     17.64600149	     17.64600149	      8.80107789	     -4.71792311	      9.09300293	     -9.54628375	      8.56303569	      1.90126485	     22.65625133	    -15.18821559	     -7.83384024	     75.85085991	     44.89846614	      0.00000000	      0.00000000	     -7.05417079	     -9.66812190	     -4.14338173	     29.56417279	     46.48200642	      0.00000000	      0.00000000
     12.28964286	     -4.04015725	     -4.53916940	      5.32340866	      0.70668280	      0.92966544	      0.49303619	      4.01145182	      4.68032862	    -18.59827555	      9.31937763	      9.31937763	     11.77166180	      3.52112161	     -7.57963969	     30.63623153	     -7.89719576	     -3.14171218	     16.96774998	     16.96774998	      8.33650530	     -3.69780472	      8.88369076	     -9.52031692	      8.58252140	      1.82138730	     23.42878419	    -14.65189206	     -7.71814583	     77.29954825	     44.85782692	      0.00000000	      0.00000000	     -7.66869651	     -9.70289866	     -3.84076671	     29.45396231	     46.41600014	      0.00000000	      0.00000000
     12.30285714	     -3.99210187	     -4.66446069	      5.47017957	      0.70669044	      0.92896177	      0.49249779	      3.42215250	      4.87642910	    -18.57145829	      9.16930935	      9.16930935	     12.16260613	      3.50952224	     -7.51658897	     30.75781514	     -7.82986220	     -3.61585727	     16.66521169	     16.66521169	      7.79323653	     -3.08750191	      8.57342985	     -9.47966896	      8.57714695	      1.79169879	     24.10604253	    -14.21287521	     -7.56574328	     78.71912209	     44.81775424	      0.00000000	      0.00000000	     -8.26065484	     -9.73777900	     -3.50398881	     29.45254211	     46.34586992	      0.00000000	      0.00000000
     12.31607143	     -3.99080403	     -4.75961537	      5.54978257	      0.70694346	      0.92814935	      0.49182866	      2.92211256	      4.99937142	    -18.52972248	      9.13729165	      9.13729165	     12.54292979	      3.49595112	     -7.57710951	     30.85660131	     -7.73806881	     -3.92581321	     16.70764143	     16.70764143	      7.31461647	     -3.08296002	      8.62245903	     -9.27416790	      8.56046058	      2.11289600	     24.81391539	    -14.08073869	     -7.53566097	     79.26339632	     44.80359669	      0.00000000	      0.00000000	     -8.63042055	     -9.70548111	     -3.43000501	     29.36974146	     46.32669286	      0.00000000	      0.00000000
